<svg xmlns="http://www.w3.org/2000/svg" viewBox="0 0 3104.000000 3104.000000" role="img" aria-labelledby="title">
  <style>
    /* Default state: visible. Graceful fallback for environments where
       neither prefers-reduced-motion media query matches (very old browsers,
       certain print/reader contexts). The icon must never disappear because
       a media query failed to evaluate. */

    /* Honor reduced motion: just fade in, no transforms. */
    @media (prefers-reduced-motion: reduce) {
      #left_leaf, #right_leaf, #plate_arc, #spoon, #knife, #fork, #chef_hat {
        animation: a2c-fade 600ms ease-out both;
      }
      @keyframes a2c-fade {
        from { opacity: 0; }
        to   { opacity: 1; }
      }
    }

    @media (prefers-reduced-motion: no-preference) {
      /* Hide initially so the build animation can introduce each part. */
      #left_leaf, #right_leaf, #plate_arc, #spoon, #knife, #fork, #chef_hat {
        opacity: 0;
      }

      #left_leaf {
        transform-origin: 1552.0px 3094.0px;
        transform-box: fill-box;
        animation: a2c-left_leaf 600ms cubic-bezier(0.22, 1, 0.36, 1) 0ms both;
      }
      @keyframes a2c-left_leaf {
        0%   { opacity: 0; transform: translateY(80px) scale(0.4); }
        60%  { opacity: 1; }
        100% { opacity: 1; transform: translateY(0) scale(1); }
      }

      #right_leaf {
        transform-origin: 1552.0px 3093.0px;
        transform-box: fill-box;
        animation: a2c-right_leaf 600ms cubic-bezier(0.22, 1, 0.36, 1) 100ms both;
      }
      @keyframes a2c-right_leaf {
        0%   { opacity: 0; transform: translateY(80px) scale(0.4); }
        60%  { opacity: 1; }
        100% { opacity: 1; transform: translateY(0) scale(1); }
      }

      #plate_arc {
        transform-origin: 1584.0px 1368.6px;
        transform-box: fill-box;
        animation: a2c-plate_arc 400ms cubic-bezier(0.22, 1, 0.36, 1) 350ms both;
      }
      @keyframes a2c-plate_arc {
        0%   { opacity: 0; transform: scale(0.92); }
        100% { opacity: 1; transform: scale(1); }
      }

      #spoon {
        transform-origin: 1226.7px 1574.0px;
        transform-box: fill-box;
        animation: a2c-spoon 350ms cubic-bezier(0.34, 1.56, 0.64, 1) 600ms both;
      }
      @keyframes a2c-spoon {
        0%   { opacity: 0; transform: translateY(-180px) scale(0.95); }
        70%  { opacity: 1; transform: translateY(8px) scale(1); }
        100% { opacity: 1; transform: translateY(0) scale(1); }
      }

      #knife {
        transform-origin: 1574.0px 1418.0px;
        transform-box: fill-box;
        animation: a2c-knife 350ms cubic-bezier(0.34, 1.56, 0.64, 1) 680ms both;
      }
      @keyframes a2c-knife {
        0%   { opacity: 0; transform: translateY(-180px) scale(0.95); }
        70%  { opacity: 1; transform: translateY(8px) scale(1); }
        100% { opacity: 1; transform: translateY(0) scale(1); }
      }

      #fork {
        transform-origin: 1920.9px 1604.0px;
        transform-box: fill-box;
        animation: a2c-fork 350ms cubic-bezier(0.34, 1.56, 0.64, 1) 760ms both;
      }
      @keyframes a2c-fork {
        0%   { opacity: 0; transform: translateY(-180px) scale(0.95); }
        70%  { opacity: 1; transform: translateY(8px) scale(1); }
        100% { opacity: 1; transform: translateY(0) scale(1); }
      }

      #chef_hat {
        transform-origin: 1554.1px 718.1px;
        transform-box: fill-box;
        animation: a2c-chef_hat 450ms cubic-bezier(0.22, 1, 0.36, 1) 950ms both;
      }
      @keyframes a2c-chef_hat {
        0%   { opacity: 0; transform: scale(0.92); }
        100% { opacity: 1; transform: scale(1); }
      }
    }
  </style>
  <title id="title">Act Two Catering</title>
  <g transform="translate(0.000000,3104.000000) scale(0.100000,-0.100000)">
    <path id="left_leaf" d="M6059 16622 c-92 -98 -124 -134 -218 -242 -40 -47 -85 -99 -100 -115 -104 -120 -441 -558 -441 -574 0 -5 -4 -11 -8 -13 -13 -5 -238 -331 -319 -463 -7 -11 -66 -105 -131 -210 -220 -352 -513 -904 -685 -1295 -883 -2003 -1107 -4068 -671 -6195 116 -564 356 -1354 525 -1722 10 -24 19 -45 19 -48 0 -6 78 -189 115 -270 116 -251 201 -419 365 -720 177 -324 543 -868 777 -1155 7 -8 46 -58 88 -110 42 -52 84 -104 94 -115 435 -504 826 -872 1426 -1343 180 -141 673 -466 935 -615 1355 -771 2883 -1207 4570 -1302 345 -19 841 -29 859 -16 11 7 -34 33 -175 104 -104 52 -211 107 -239 122 -27 15 -79 43 -115 63 -36 19 -69 38 -75 42 -5 4 -46 27 -90 50 -536 287 -1500 890 -2155 1349 -374 262 -1102 812 -1264 956 -6 6 -36 30 -66 55 -30 25 -57 47 -60 50 -3 3 -30 25 -60 50 -30 25 -66 55 -80 66 -567 485 -1079 980 -1506 1459 -39 44 -101 114 -138 155 -65 71 -361 438 -457 565 -129 170 -391 550 -475 688 -16 27 -38 63 -49 81 -397 641 -702 1389 -840 2060 -14 70 -25 132 -23 137 2 5 23 -23 47 -63 85 -140 394 -592 548 -803 124 -169 355 -472 463 -605 20 -25 85 -106 145 -180 184 -227 434 -519 600 -700 287 -313 455 -489 655 -687 283 -281 512 -498 710 -674 52 -46 97 -87 100 -90 3 -3 39 -34 80 -69 41 -35 77 -67 80 -70 7 -8 220 -186 336 -281 443 -361 852 -660 1349 -985 50 -32 95 -61 100 -64 6 -3 37 -23 70 -44 262 -171 719 -429 1110 -625 261 -132 309 -155 548 -263 474 -214 1138 -456 1592 -580 356 -97 821 -208 873 -208 29 0 70 103 117 290 142 558 99 1210 -127 1935 -40 128 -55 171 -125 350 -124 315 -346 755 -535 1060 -71 113 -203 321 -210 330 -15 17 -107 148 -134 188 -93 141 -574 753 -634 807 -3 3 -37 41 -75 85 -87 99 -125 141 -206 230 -35 39 -68 76 -74 83 -5 7 -39 44 -75 81 -36 37 -77 81 -92 97 -15 16 -33 34 -40 41 -7 7 -94 93 -193 191 -99 99 -205 203 -235 231 -30 29 -59 56 -63 60 -58 58 -139 134 -237 220 -54 47 -169 149 -256 226 -87 77 -175 154 -195 170 -21 17 -91 75 -155 130 -148 126 -183 155 -490 400 -431 344 -545 427 -719 529 -59 34 -368 235 -455 296 -1018 710 -1771 1460 -2369 2359 -78 116 -205 321 -246 396 -117 212 -152 279 -212 400 -347 704 -570 1445 -672 2235 -87 677 -66 1557 50 2053 18 79 1 77 -82 -11z" fill="#04580b"/>
    <path id="right_leaf" d="M24900 16683 c0 -10 7 -54 15 -98 26 -135 50 -303 71 -495 20 -194 30 -824 15 -1035 -36 -531 -106 -960 -232 -1425 -58 -212 -206 -664 -248 -755 -18 -39 -91 -215 -91 -220 0 -3 -34 -75 -75 -161 -41 -86 -75 -158 -75 -160 0 -11 -219 -411 -270 -494 -5 -8 -28 -46 -51 -85 -42 -69 -278 -421 -322 -480 -12 -16 -42 -57 -67 -90 -653 -880 -1625 -1735 -2705 -2375 -35 -21 -172 -121 -215 -157 -8 -7 -78 -61 -155 -120 -141 -109 -386 -303 -395 -313 -3 -3 -65 -55 -139 -115 -74 -60 -169 -139 -211 -175 -42 -36 -98 -83 -125 -105 -28 -22 -62 -52 -76 -67 -15 -16 -31 -28 -36 -28 -5 0 -19 -10 -31 -22 -12 -13 -44 -43 -73 -68 -28 -25 -72 -65 -97 -89 -26 -24 -57 -50 -69 -58 -13 -9 -23 -21 -23 -28 0 -8 -8 -16 -18 -19 -10 -4 -53 -39 -94 -79 -42 -39 -98 -92 -126 -117 -317 -283 -1064 -1082 -1312 -1403 -25 -32 -59 -75 -76 -95 -51 -61 -225 -290 -306 -402 -710 -992 -1115 -1936 -1220 -2845 -19 -167 -16 -611 6 -760 36 -246 124 -565 163 -588 4 -2 64 8 133 24 214 48 432 100 500 119 36 9 119 32 185 50 419 114 1009 319 1415 492 295 126 760 345 955 450 486 260 886 496 1175 692 41 28 82 54 90 58 8 3 67 43 130 87 63 44 156 108 205 142 50 35 133 94 185 133 52 39 114 84 137 101 70 50 280 212 432 335 79 63 160 129 181 145 69 55 274 229 336 285 33 30 89 80 124 110 219 189 418 377 761 720 298 297 403 407 653 680 103 112 482 551 506 584 8 12 19 26 26 31 6 6 101 123 211 260 243 305 498 643 666 885 54 77 280 417 351 528 33 50 61 90 64 88 6 -6 -42 -232 -83 -393 -147 -572 -423 -1217 -758 -1768 -96 -159 -238 -376 -326 -500 -28 -38 -62 -88 -78 -110 -126 -182 -529 -692 -613 -775 -3 -3 -34 -39 -70 -80 -214 -248 -670 -716 -975 -1001 -332 -310 -836 -739 -1195 -1017 -341 -264 -576 -437 -1055 -775 -71 -50 -678 -453 -725 -481 -25 -15 -79 -49 -120 -76 -41 -28 -84 -55 -95 -60 -11 -6 -69 -41 -130 -79 -150 -95 -541 -329 -655 -393 -25 -14 -94 -53 -155 -88 -60 -34 -135 -76 -165 -93 -30 -16 -68 -38 -85 -47 -41 -25 -470 -251 -542 -286 l-58 -29 280 -3 c927 -11 2000 132 2925 389 419 117 974 310 1245 434 27 13 104 47 170 75 156 68 559 269 700 350 61 34 135 76 165 93 84 46 416 253 500 312 41 28 113 78 160 111 100 69 402 294 445 333 17 14 46 39 65 54 1040 842 1898 1958 2460 3197 95 209 116 261 211 502 159 408 331 969 415 1356 286 1313 337 2453 163 3677 -164 1162 -583 2424 -1144 3450 -190 348 -353 619 -525 878 -166 248 -243 361 -249 367 -4 3 -34 43 -69 90 -119 161 -281 372 -296 385 -6 6 -31 35 -56 65 -97 121 -199 238 -274 317 -44 46 -91 97 -105 114 -34 42 -61 56 -61 32z" fill="#04580b"/>
    <path id="plate_arc" d="M15470 19003 c-1051 -49 -2153 -354 -3079 -852 -157 -84 -195 -106 -349 -198 -63 -37 -448 -293 -507 -336 -1481 -1083 -2492 -2633 -2874 -4407 -60 -282 -57 -316 12 -127 591 1600 1745 2993 3222 3887 2231 1350 5020 1464 7355 300 647 -322 1305 -776 1785 -1230 39 -37 96 -91 129 -121 307 -283 757 -823 1043 -1249 217 -324 473 -784 607 -1090 16 -36 47 -105 69 -155 21 -49 66 -160 99 -245 100 -260 110 -275 77 -104 -182 947 -581 1908 -1116 2693 -77 112 -214 307 -230 326 -5 6 -44 55 -88 110 -76 96 -209 258 -230 281 -5 6 -65 72 -133 146 -384 423 -981 930 -1415 1201 -7 4 -70 43 -142 87 -71 43 -134 83 -140 87 -5 5 -21 14 -35 20 -14 7 -65 35 -115 63 -1171 658 -2555 978 -3945 913z" fill="#04580b"/>
    <path id="spoon" d="M12145 15294 c-93 -15 -299 -90 -289 -106 4 -7 2 -8 -5 -4 -9 6 -130 -69 -151 -94 -3 -3 -16 -13 -30 -22 -62 -39 -230 -201 -310 -298 -29 -36 -56 -67 -59 -70 -6 -4 -21 -24 -73 -95 -4 -5 -18 -23 -31 -40 -173 -224 -447 -819 -483 -1050 -3 -22 -9 -44 -14 -50 -7 -9 -20 -59 -25 -95 -1 -8 -5 -22 -8 -30 -8 -20 -40 -170 -41 -195 -1 -11 -4 -22 -7 -25 -4 -3 -10 -29 -13 -59 -3 -30 -10 -69 -15 -85 -5 -17 -12 -54 -15 -83 -3 -28 -10 -62 -15 -75 -4 -13 -11 -45 -15 -73 -4 -27 -18 -119 -32 -203 -43 -268 -65 -489 -70 -732 -6 -214 -3 -281 21 -475 3 -22 6 -47 6 -55 6 -80 85 -386 124 -475 7 -16 16 -40 20 -53 20 -66 173 -344 220 -399 5 -7 39 -52 75 -100 99 -134 370 -399 545 -533 178 -137 239 -180 254 -180 6 0 11 -3 11 -7 0 -15 119 -85 131 -77 7 4 9 3 5 -4 -3 -6 17 -23 48 -41 52 -30 54 -33 50 -69 -4 -37 -42 -593 -42 -622 -1 -8 -14 -197 -31 -420 -16 -223 -32 -443 -35 -490 -3 -47 -10 -141 -16 -210 l-10 -125 38 -34 c113 -102 196 -178 212 -194 10 -11 22 -23 27 -28 4 -4 33 -31 63 -60 30 -28 136 -132 235 -231 99 -98 186 -184 193 -191 7 -7 25 -25 40 -41 71 -77 144 -147 149 -143 2 3 -3 101 -12 219 -8 117 -18 245 -20 283 -3 39 -10 131 -16 205 -5 74 -12 182 -15 240 -3 58 -9 120 -14 139 -5 19 -7 38 -4 42 3 5 0 71 -6 146 -6 76 -13 172 -15 213 -3 41 -10 140 -15 220 -6 80 -13 179 -17 220 -4 41 -6 78 -5 81 0 3 -6 91 -14 195 -9 104 -15 196 -15 204 0 8 -7 103 -15 210 -8 107 -14 198 -14 201 0 4 53 40 118 80 111 69 271 176 282 188 3 3 41 33 85 66 153 114 381 328 490 460 28 33 52 62 55 65 31 30 165 231 200 300 19 36 42 77 53 92 10 16 15 32 12 38 -3 5 -2 10 3 10 31 0 187 487 167 520 -4 6 -2 10 3 10 11 0 40 232 48 395 7 151 -13 557 -28 566 -6 4 -7 16 -4 27 6 19 -22 253 -44 372 -6 30 -13 75 -15 100 -3 25 -10 59 -15 75 -5 17 -12 57 -15 90 -4 33 -10 71 -15 85 -4 14 -18 84 -31 155 -13 72 -27 133 -32 136 -5 4 -7 11 -4 16 7 11 -29 170 -45 202 -7 13 -12 35 -10 50 2 21 1 23 -8 11 -7 -11 -8 -6 -3 19 4 24 3 32 -5 27 -7 -4 -10 -2 -7 6 8 19 -102 345 -125 373 -4 5 -8 14 -8 18 0 14 -23 70 -78 184 -30 61 -54 116 -54 122 0 5 -6 16 -12 23 -11 11 -23 31 -72 123 -6 11 -13 22 -16 25 -3 3 -21 30 -40 60 -225 361 -643 744 -870 796 -42 10 -41 9 -62 17 -10 4 -25 9 -34 12 -23 8 -262 14 -299 9z" fill="#1f1c1d"/>
    <path id="knife" d="M15180 16847 c-78 -26 -130 -76 -130 -125 0 -12 -4 -24 -10 -27 -7 -4 -10 -1558 -10 -4628 0 -4911 1 -4785 -45 -5527 -3 -47 -7 -130 -10 -185 -21 -443 -37 -759 -50 -985 -8 -146 -17 -323 -20 -395 -3 -71 -8 -185 -11 -253 l-5 -122 85 -174 c48 -96 86 -176 86 -179 0 -3 16 -41 36 -84 53 -114 61 -134 75 -175 7 -21 17 -38 21 -38 5 0 8 -6 6 -12 -2 -14 20 -86 32 -103 4 -5 21 -53 39 -105 18 -52 39 -106 48 -119 8 -13 10 -20 4 -17 -15 10 -14 7 13 -71 52 -148 124 -432 157 -628 35 -198 36 -206 38 -169 0 18 12 91 27 163 14 72 22 136 19 141 -3 6 -2 10 3 10 5 0 13 21 17 47 17 122 145 550 217 732 17 42 31 83 33 91 1 8 10 32 19 52 9 21 16 44 16 53 0 8 4 15 8 15 4 0 14 17 21 38 7 20 24 62 38 92 66 145 88 191 124 266 43 88 42 75 24 314 -3 36 -16 238 -30 450 -14 212 -29 455 -35 540 -5 85 -14 229 -20 320 -5 91 -17 257 -25 370 -16 213 -21 296 -29 440 -15 262 -19 316 -22 322 -2 3 -6 51 -8 105 -2 54 -7 116 -10 138 -6 39 -5 42 76 126 93 96 185 200 208 235 8 12 47 67 85 121 39 54 82 118 95 143 14 25 28 47 31 50 11 10 87 149 94 172 4 13 16 39 26 58 17 32 43 91 74 165 94 229 166 524 196 810 30 295 14 1911 -26 2640 -23 412 -42 676 -65 915 -5 47 -11 121 -14 165 -3 44 -17 168 -31 275 -14 107 -28 218 -31 245 -7 74 -52 391 -64 455 -6 30 -13 73 -16 95 -2 22 -11 74 -19 115 -8 41 -28 149 -46 240 -17 91 -34 169 -37 174 -3 6 -6 19 -7 30 -3 53 -29 154 -38 149 -6 -4 -8 1 -4 12 4 10 3 32 -3 49 -5 17 -21 78 -35 136 -50 204 -137 474 -150 463 -4 -5 -5 -3 -1 4 9 17 -48 177 -124 348 -10 22 -32 73 -49 113 -18 40 -45 96 -60 125 -16 28 -37 68 -48 87 -168 315 -458 631 -643 701 -57 22 -62 22 -110 6z" fill="#1f1c1d"/>
    <path id="fork" d="M18215 14974 c-14 -15 -25 -32 -25 -38 0 -6 -7 -73 -15 -149 -7 -76 -11 -145 -9 -152 3 -7 1 -22 -5 -33 -6 -11 -13 -60 -15 -109 -2 -48 -6 -95 -9 -103 -3 -8 -8 -49 -11 -90 -4 -41 -13 -145 -21 -232 -9 -86 -17 -178 -19 -205 -2 -26 -9 -95 -15 -153 -12 -118 -63 -689 -86 -970 -8 -102 -19 -232 -25 -290 -5 -58 -15 -170 -20 -250 -6 -80 -15 -203 -20 -275 -99 -1321 -115 -2107 -49 -2347 38 -137 147 -346 227 -434 9 -10 29 -35 44 -55 36 -48 208 -220 255 -256 21 -15 40 -30 43 -33 41 -42 339 -245 369 -252 8 -2 21 -9 30 -16 9 -7 29 -23 45 -36 l29 -23 -12 -209 c-14 -226 -14 -220 -31 -432 -6 -78 -9 -146 -6 -151 3 -4 1 -23 -4 -42 -5 -19 -11 -81 -14 -139 -3 -58 -10 -167 -16 -242 -7 -76 -10 -142 -8 -148 1 -5 42 27 89 73 176 167 269 252 289 261 11 5 20 15 20 21 0 7 10 19 23 28 12 8 43 34 69 58 25 24 69 64 97 89 29 25 61 55 73 68 12 12 27 22 33 22 6 0 21 13 32 29 l22 28 -25 334 c-13 184 -24 339 -24 344 0 6 23 25 50 43 28 18 48 37 45 42 -3 4 3 6 13 3 10 -2 24 3 31 11 8 9 17 16 21 16 42 0 360 248 505 395 205 205 375 487 377 622 0 5 3 13 8 18 41 51 47 583 14 1225 -13 264 -46 792 -59 960 -8 102 -17 219 -20 260 -8 111 -84 1028 -95 1150 -6 58 -17 186 -25 285 -8 99 -18 194 -21 210 -3 17 -7 57 -9 90 -9 138 -37 432 -65 680 -5 44 -11 112 -14 150 -3 39 -10 108 -16 155 -5 47 -12 102 -14 122 -4 48 -29 86 -61 94 -47 12 -152 -1 -174 -20 l-21 -19 0 -2334 0 -2334 -25 -24 c-24 -25 -27 -25 -189 -25 -163 0 -166 0 -181 23 -14 21 -15 275 -15 2348 0 2088 -1 2327 -15 2347 -36 51 -99 53 -128 3 -16 -27 -17 -187 -17 -2353 0 -2087 -2 -2326 -16 -2346 -15 -21 -21 -22 -184 -22 l-169 0 -20 26 -21 27 0 2328 c0 1546 -3 2329 -10 2329 -5 0 -9 5 -7 12 4 20 -53 42 -82 32 -53 -19 -51 112 -51 -2386 l0 -2327 -26 -20 c-42 -33 -333 -32 -364 1 l-20 22 0 2328 c0 1357 -4 2328 -9 2328 -5 0 -12 11 -15 24 -7 29 -30 36 -119 36 -61 0 -71 -3 -92 -26z" fill="#1f1c1d"/>
    <path id="chef_hat" d="M15200 31014 c-230 -26 -333 -45 -686 -124 -78 -18 -297 -82 -339 -100 -11 -5 -63 -23 -115 -41 -52 -18 -99 -36 -105 -39 -5 -4 -28 -13 -50 -20 -71 -23 -343 -148 -498 -229 -285 -148 -388 -210 -689 -412 -90 -61 -273 -196 -341 -253 -23 -19 -71 -59 -106 -88 -35 -29 -82 -68 -105 -86 -44 -36 -67 -56 -195 -171 -109 -98 -415 -405 -462 -462 -20 -24 -52 -60 -70 -79 -19 -19 -50 -55 -69 -80 -19 -25 -45 -56 -57 -70 -12 -14 -30 -35 -40 -47 l-18 -23 -140 48 c-251 87 -714 192 -1035 236 -455 62 -912 66 -1350 12 -19 -2 -57 -7 -85 -10 -79 -9 -128 -17 -160 -26 -16 -5 -46 -12 -65 -15 -261 -42 -697 -192 -974 -335 -138 -71 -341 -191 -356 -211 -3 -3 -15 -11 -28 -18 -158 -84 -557 -451 -758 -699 -10 -13 -27 -33 -38 -45 -10 -12 -30 -38 -45 -57 -14 -19 -28 -37 -31 -40 -4 -3 -35 -45 -70 -95 -35 -49 -75 -103 -87 -118 -13 -16 -20 -34 -16 -40 3 -7 3 -9 -1 -5 -7 6 -76 -74 -76 -88 0 -4 -22 -39 -48 -78 -27 -39 -59 -91 -73 -116 -13 -25 -26 -47 -29 -50 -54 -51 -359 -677 -343 -703 3 -6 1 -7 -4 -4 -6 4 -17 -12 -26 -36 -67 -184 -117 -325 -120 -342 -2 -11 -9 -33 -16 -49 -6 -16 -9 -36 -7 -43 3 -8 2 -12 -3 -9 -5 3 -14 -16 -21 -42 -6 -26 -23 -89 -37 -141 -14 -52 -26 -106 -28 -120 -1 -14 -7 -39 -14 -55 -6 -16 -10 -31 -7 -33 2 -3 -2 -26 -9 -51 -8 -26 -16 -69 -19 -97 -4 -27 -10 -63 -15 -80 -46 -149 -81 -744 -62 -1060 18 -303 21 -332 39 -309 14 18 14 18 7 -1 -16 -43 -16 -54 -1 -156 23 -148 44 -268 50 -277 2 -4 7 -26 11 -50 10 -71 69 -294 100 -382 7 -19 23 -69 35 -110 32 -109 123 -337 186 -468 30 -63 54 -117 54 -122 0 -5 3 -10 8 -12 4 -1 24 -37 45 -78 92 -180 358 -566 490 -710 18 -19 48 -56 68 -82 106 -140 572 -602 695 -688 20 -14 251 -187 284 -213 19 -14 128 -86 220 -146 36 -22 71 -39 78 -36 7 3 10 0 7 -5 -4 -6 9 -17 27 -24 18 -8 45 -24 59 -35 50 -39 530 -272 609 -296 14 -4 39 -13 55 -21 53 -23 138 -55 215 -81 41 -13 84 -28 95 -33 11 -5 47 -16 80 -25 33 -9 69 -20 80 -25 11 -5 56 -18 100 -29 44 -11 107 -27 140 -37 106 -29 375 -84 560 -115 99 -16 203 -34 230 -39 70 -13 211 -30 267 -33 49 -2 51 -5 51 -52 0 -11 -1 -357 -2 -770 l-2 -750 -110 -120 c-61 -67 -107 -126 -104 -133 2 -7 1 -11 -3 -8 -23 14 -306 -340 -532 -664 -52 -74 -98 -136 -102 -138 -5 -2 -8 -8 -8 -14 0 -5 -20 -40 -43 -76 -24 -37 -63 -98 -87 -137 -24 -38 -58 -94 -77 -122 -18 -29 -33 -55 -33 -58 0 -3 -11 -22 -23 -43 -13 -20 -40 -66 -59 -102 -19 -36 -50 -92 -68 -125 -72 -131 -229 -456 -255 -525 -7 -19 -30 -73 -50 -120 -20 -47 -43 -98 -50 -115 -7 -16 -16 -41 -20 -55 -4 -14 -15 -43 -25 -65 -26 -59 -75 -188 -76 -200 0 -5 -7 -23 -13 -40 -47 -111 -164 -502 -155 -517 3 -5 1 -8 -3 -8 -8 0 -30 -73 -48 -155 -2 -11 -9 -37 -14 -59 -5 -21 -7 -45 -4 -52 3 -8 0 -14 -7 -14 -7 0 -10 -8 -7 -20 3 -10 2 -20 -3 -22 -4 -2 -10 -23 -13 -48 -6 -44 -6 -45 8 -15 44 96 56 129 51 142 -3 8 -2 11 3 8 5 -3 13 5 16 17 4 13 29 70 56 127 27 58 52 115 55 127 3 13 12 28 20 35 8 6 14 16 14 22 0 6 36 82 80 169 72 141 111 215 189 353 13 22 33 58 44 80 12 22 24 42 27 45 3 3 35 55 72 115 62 104 147 238 165 260 4 6 30 44 58 85 27 41 53 80 57 85 4 6 46 63 92 127 47 65 113 153 148 197 35 43 89 112 120 152 31 41 65 83 75 94 10 11 31 36 47 55 45 55 145 167 216 243 36 39 64 74 63 78 -2 5 0 8 5 7 4 -1 90 81 192 183 184 183 331 320 465 434 38 33 75 65 81 70 6 6 28 24 49 40 21 17 64 50 94 75 119 96 245 193 294 226 29 19 70 48 92 65 22 17 133 92 247 168 114 76 204 142 200 146 -4 5 -1 5 6 1 6 -4 24 1 40 12 15 10 48 31 75 46 26 14 68 38 95 52 26 15 59 35 74 45 14 11 29 19 34 19 15 0 133 74 128 81 -2 4 1 11 7 15 8 4 9 3 5 -4 -11 -19 -4 -16 136 56 217 110 426 206 628 289 74 30 146 60 160 66 14 6 27 11 30 12 3 1 12 4 20 7 88 34 416 147 455 158 17 4 75 21 130 38 200 59 529 145 603 158 15 3 104 20 197 39 94 19 220 41 280 50 61 9 119 18 129 21 10 4 37 8 60 10 23 1 104 10 181 19 546 62 1375 71 1770 19 22 -3 101 -12 175 -20 74 -8 211 -26 303 -40 93 -13 174 -21 179 -17 7 3 8 1 4 -5 -5 -8 0 -12 13 -12 28 0 371 -68 459 -90 41 -11 77 -19 80 -18 4 1 14 -2 22 -5 8 -3 52 -15 97 -27 155 -38 572 -163 605 -181 10 -6 60 -24 111 -40 51 -16 101 -34 112 -38 11 -5 47 -19 80 -32 325 -122 823 -359 1133 -538 68 -39 129 -68 134 -64 7 3 8 1 4 -5 -4 -7 -3 -12 2 -12 5 0 43 -23 85 -51 44 -29 81 -47 88 -43 8 4 9 3 5 -4 -4 -6 4 -16 16 -23 13 -7 68 -42 123 -78 55 -36 107 -70 116 -76 9 -5 44 -29 78 -53 34 -24 66 -40 71 -37 5 3 8 0 5 -7 -3 -8 14 -25 42 -43 43 -26 68 -45 107 -80 6 -5 34 -26 61 -45 28 -19 55 -39 61 -45 6 -5 26 -21 44 -35 19 -14 65 -51 102 -83 37 -32 68 -56 68 -53 0 2 13 -8 29 -22 16 -15 49 -43 73 -63 704 -583 1455 -1502 1902 -2329 37 -69 71 -132 76 -140 5 -8 24 -44 42 -80 18 -36 35 -67 38 -70 5 -5 83 -161 85 -170 0 -3 15 -35 33 -71 18 -37 32 -71 32 -77 0 -6 4 -12 8 -14 5 -1 28 -52 51 -113 97 -252 112 -255 50 -10 -22 88 -47 188 -55 222 -9 36 -21 62 -27 60 -8 -1 -11 9 -9 28 1 17 -5 55 -14 85 -40 133 -88 267 -103 284 -10 13 -11 17 -2 11 17 -10 14 0 -56 180 -30 77 -64 165 -75 195 -11 30 -24 59 -29 65 -5 5 -9 15 -9 22 0 7 -11 36 -24 65 -13 29 -32 72 -42 95 -9 23 -22 39 -27 36 -6 -3 -7 -1 -3 6 10 16 -3 53 -16 45 -6 -4 -8 -3 -5 3 6 9 -6 39 -58 143 -12 25 -26 56 -30 69 -4 13 -28 61 -54 106 -25 44 -62 112 -81 151 -19 38 -37 71 -40 74 -3 3 -16 25 -29 50 -41 79 -260 440 -320 530 -26 38 -201 286 -208 295 -4 6 -33 44 -63 85 -50 68 -156 205 -198 255 -62 73 -89 105 -121 144 -58 70 -120 139 -208 231 l-83 85 0 648 c0 510 3 648 13 652 6 2 62 18 122 35 191 55 571 189 628 220 9 6 52 24 94 41 259 103 955 486 945 520 -1 6 2 8 8 4 6 -3 32 8 58 26 26 18 74 51 107 74 130 89 144 100 140 112 -2 7 2 10 9 7 8 -3 63 34 122 83 60 48 114 91 119 95 190 147 560 511 730 718 173 209 238 297 230 310 -3 5 1 7 9 4 8 -3 17 2 20 14 4 10 14 27 24 38 10 10 29 37 42 59 13 22 27 42 30 45 18 14 207 326 260 430 13 25 40 79 62 120 21 41 36 81 33 88 -3 7 -1 11 4 8 4 -3 13 5 19 17 37 74 102 221 102 229 0 5 6 22 14 36 32 62 38 82 32 97 -3 9 -2 14 3 11 18 -11 197 542 206 634 0 9 4 20 7 25 3 6 9 33 13 60 4 28 11 55 15 60 5 6 10 30 12 55 1 25 6 47 10 50 3 3 9 32 12 64 4 32 8 62 11 65 8 14 36 229 50 388 26 289 18 796 -15 1033 -29 205 -62 395 -85 490 -14 58 -28 116 -31 130 -11 51 -35 141 -43 163 -5 12 -26 76 -46 142 -32 105 -69 210 -110 310 -6 17 -22 58 -35 92 -13 34 -28 59 -34 56 -5 -3 -6 -1 -3 4 6 9 -38 119 -75 187 -6 11 -42 80 -80 155 -80 156 -118 223 -131 232 -5 3 -7 9 -5 12 3 5 -24 47 -165 262 -80 120 -131 195 -149 215 -7 8 -26 32 -42 55 -195 269 -556 616 -865 831 -207 143 -531 324 -587 328 -12 0 -20 4 -18 7 4 7 -58 35 -186 84 -52 20 -102 40 -110 44 -9 5 -31 12 -50 16 -19 4 -39 11 -45 15 -5 4 -37 14 -70 23 -33 8 -94 25 -135 36 -116 32 -413 94 -510 105 -25 3 -101 12 -170 21 -459 56 -1185 32 -1725 -59 -50 -9 -162 -27 -250 -41 -88 -14 -178 -30 -200 -36 -22 -6 -51 -12 -65 -13 -14 -2 -70 -12 -125 -24 -55 -11 -140 -28 -190 -37 -49 -10 -115 -23 -147 -31 -63 -16 -81 -12 -96 19 -42 90 -588 697 -613 681 -5 -3 -8 -2 -7 3 5 14 -24 45 -112 123 -47 41 -87 77 -90 80 -3 3 -34 30 -70 60 -36 30 -67 57 -70 60 -13 15 -161 130 -205 161 -27 19 -58 42 -69 52 -11 10 -26 15 -33 13 -7 -3 -12 -1 -10 4 3 10 -182 150 -199 150 -7 0 -14 3 -16 8 -1 4 -22 20 -46 35 -40 26 -56 35 -157 92 -22 13 -74 44 -115 69 -41 25 -78 46 -82 46 -5 0 -26 11 -49 25 -22 14 -45 23 -51 19 -7 -4 -8 -3 -4 4 4 7 1 12 -8 12 -8 0 -50 18 -93 39 -222 112 -589 246 -828 301 -49 12 -127 30 -171 41 -309 73 -799 106 -1084 73z m690 -1108 c93 -14 227 -37 285 -51 82 -18 220 -57 261 -73 27 -11 90 -33 139 -50 99 -33 396 -169 490 -225 209 -123 270 -162 393 -251 291 -210 390 -294 648 -551 110 -110 213 -216 229 -235 16 -19 54 -62 84 -95 153 -165 581 -744 581 -785 0 -32 32 -29 156 14 207 70 252 84 379 121 168 49 337 94 420 112 39 8 93 21 120 28 56 16 321 66 496 95 476 76 1108 102 1472 60 157 -18 416 -58 476 -75 30 -8 58 -12 62 -9 4 2 10 0 13 -5 3 -5 23 -12 43 -16 37 -6 329 -101 388 -126 17 -7 32 -13 35 -14 28 -7 272 -138 368 -198 277 -172 579 -469 728 -717 15 -25 31 -48 36 -51 6 -3 9 -10 9 -15 -1 -5 12 -29 28 -54 84 -130 228 -424 310 -633 26 -65 50 -115 53 -112 3 3 6 -4 6 -17 0 -22 24 -102 42 -143 19 -42 106 -340 114 -391 2 -12 15 -77 29 -145 87 -421 95 -568 74 -1314 -1 -27 2 -59 7 -70 8 -19 8 -19 -6 -2 -12 17 -15 8 -27 -85 -7 -57 -21 -148 -33 -203 -11 -55 -26 -129 -33 -165 -19 -94 -61 -252 -79 -295 -9 -20 -15 -39 -15 -43 2 -9 4 -2 -36 -117 -20 -55 -46 -129 -58 -165 -12 -36 -25 -66 -29 -68 -5 -2 -8 -8 -8 -13 0 -4 -11 -33 -25 -63 -14 -30 -25 -62 -25 -70 0 -9 -5 -16 -11 -16 -6 0 -8 -7 -5 -16 3 -8 2 -12 -3 -9 -5 3 -13 -5 -17 -17 -24 -78 -190 -330 -348 -527 -214 -268 -561 -617 -796 -800 -47 -36 -91 -72 -99 -79 -8 -7 -26 -21 -40 -30 -14 -9 -66 -46 -116 -82 -49 -37 -107 -77 -128 -89 -20 -13 -34 -27 -31 -33 4 -7 2 -8 -5 -4 -6 4 -41 -12 -79 -37 -70 -46 -210 -127 -220 -127 -3 0 -13 -7 -22 -15 -21 -19 -355 -185 -373 -185 -7 0 -17 -4 -23 -10 -15 -15 -274 -117 -424 -166 -175 -59 -283 -89 -510 -144 -136 -34 -465 -82 -647 -97 l-83 -6 -2 -619 -3 -620 -45 34 c-93 71 -410 278 -425 278 -4 0 -28 15 -54 33 -104 75 -526 300 -762 407 -63 28 -127 57 -144 65 -16 7 -48 21 -70 31 -22 9 -58 25 -80 35 -140 64 -707 262 -787 275 -21 4 -38 10 -38 15 0 4 -21 11 -47 15 -27 4 -58 11 -71 15 -26 10 -236 66 -272 73 -14 2 -97 20 -185 40 -315 70 -671 122 -1100 158 -201 17 -958 17 -1170 0 -301 -24 -549 -56 -830 -106 -135 -24 -181 -34 -435 -91 -139 -31 -343 -86 -465 -125 -49 -16 -112 -36 -140 -44 -68 -20 -255 -84 -280 -96 -11 -5 -63 -25 -116 -44 -158 -57 -349 -138 -529 -224 -63 -31 -117 -56 -120 -57 -30 -6 -238 -121 -233 -128 3 -6 1 -7 -6 -3 -6 4 -50 -15 -99 -42 -48 -27 -91 -51 -97 -53 -12 -5 -244 -142 -305 -181 -130 -82 -429 -284 -457 -308 -7 -6 -13 -7 -13 -3 0 4 0 371 0 814 l0 807 -37 -1 c-21 0 -134 -4 -251 -8 -871 -35 -1820 135 -2492 448 -114 53 -204 97 -210 103 -3 3 -34 21 -70 39 -36 19 -99 56 -141 83 -42 26 -81 48 -87 48 -7 0 -12 3 -12 8 0 4 -17 18 -38 32 -46 30 -183 130 -199 144 -6 6 -31 27 -54 46 -120 97 -332 306 -421 415 -27 33 -57 69 -66 80 -97 118 -187 233 -209 268 -15 23 -31 44 -35 47 -20 16 -206 337 -263 455 -157 329 -268 692 -326 1065 -37 236 -51 741 -28 970 18 177 41 330 69 469 16 79 27 147 24 152 -3 5 -1 9 4 9 5 0 14 21 20 48 20 91 64 247 77 277 7 17 23 59 34 95 12 36 25 74 30 85 5 11 21 52 36 90 66 170 202 437 303 595 50 79 172 252 191 271 9 8 32 35 50 60 80 102 357 366 469 446 26 18 46 38 44 44 -1 6 2 8 8 4 5 -3 48 19 96 50 119 78 310 177 424 220 52 19 103 40 113 45 51 29 361 114 532 145 255 47 342 56 651 62 481 9 889 -35 1339 -147 135 -33 448 -125 475 -140 8 -4 51 -20 95 -35 44 -15 94 -33 110 -41 17 -7 71 -30 121 -52 l91 -38 39 54 c21 30 46 63 54 73 8 10 26 32 40 50 14 18 31 38 38 45 6 7 12 15 12 19 0 4 6 12 13 19 6 7 26 31 42 52 91 117 266 312 457 510 65 66 116 124 113 127 -3 4 -2 5 2 2 3 -3 43 30 87 72 179 172 282 264 401 359 33 26 65 53 70 59 6 6 46 38 90 70 44 33 82 63 85 66 3 4 25 21 50 38 25 17 71 51 104 74 71 51 73 52 226 150 66 42 125 77 131 77 5 0 9 4 9 9 0 5 10 13 22 17 12 3 55 26 96 50 243 144 699 332 942 388 36 8 103 24 150 35 287 67 737 88 1020 47z" fill="#1f1c1d"/>
  </g>
</svg>
